<mxfile host="app.diagrams.net" modified="2023-12-22T08:44:51.091Z" agent="Mozilla/5.0 (Windows NT 10.0; Win64; x64) AppleWebKit/537.36 (KHTML, like Gecko) Chrome/120.0.0.0 Safari/537.36 Edg/120.0.0.0" etag="J0KDl_4LbwJy-SdhUHxI" version="22.1.11" type="github">
  <diagram name="第 1 页" id="hjqKrQYHotEAEBPnxXeC">
    <mxGraphModel dx="1455" dy="1074" grid="0" gridSize="10" guides="1" tooltips="1" connect="1" arrows="1" fold="1" page="1" pageScale="1" pageWidth="2339" pageHeight="3300" math="0" shadow="0">
      <root>
        <mxCell id="0" />
        <mxCell id="1" parent="0" />
        <mxCell id="eR14lbWkHuxjIn46nBXs-12" value="" style="edgeStyle=orthogonalEdgeStyle;rounded=0;orthogonalLoop=1;jettySize=auto;html=1;" edge="1" parent="1" source="eR14lbWkHuxjIn46nBXs-1" target="eR14lbWkHuxjIn46nBXs-2">
          <mxGeometry relative="1" as="geometry" />
        </mxCell>
        <mxCell id="eR14lbWkHuxjIn46nBXs-1" value="开始" style="rounded=1;whiteSpace=wrap;html=1;" vertex="1" parent="1">
          <mxGeometry x="880" y="110" width="120" height="60" as="geometry" />
        </mxCell>
        <mxCell id="eR14lbWkHuxjIn46nBXs-13" value="" style="edgeStyle=orthogonalEdgeStyle;rounded=0;orthogonalLoop=1;jettySize=auto;html=1;" edge="1" parent="1" source="eR14lbWkHuxjIn46nBXs-2" target="eR14lbWkHuxjIn46nBXs-3">
          <mxGeometry relative="1" as="geometry" />
        </mxCell>
        <mxCell id="eR14lbWkHuxjIn46nBXs-2" value="程序初始化" style="rounded=1;whiteSpace=wrap;html=1;" vertex="1" parent="1">
          <mxGeometry x="880" y="214" width="120" height="60" as="geometry" />
        </mxCell>
        <mxCell id="eR14lbWkHuxjIn46nBXs-14" value="" style="edgeStyle=orthogonalEdgeStyle;rounded=0;orthogonalLoop=1;jettySize=auto;html=1;" edge="1" parent="1" source="eR14lbWkHuxjIn46nBXs-3" target="eR14lbWkHuxjIn46nBXs-4">
          <mxGeometry relative="1" as="geometry" />
        </mxCell>
        <mxCell id="eR14lbWkHuxjIn46nBXs-3" value="按键操作逻辑模块" style="rounded=1;whiteSpace=wrap;html=1;" vertex="1" parent="1">
          <mxGeometry x="880" y="360" width="120" height="60" as="geometry" />
        </mxCell>
        <mxCell id="eR14lbWkHuxjIn46nBXs-15" value="" style="edgeStyle=orthogonalEdgeStyle;rounded=0;orthogonalLoop=1;jettySize=auto;html=1;" edge="1" parent="1" source="eR14lbWkHuxjIn46nBXs-4" target="eR14lbWkHuxjIn46nBXs-5">
          <mxGeometry relative="1" as="geometry" />
        </mxCell>
        <mxCell id="eR14lbWkHuxjIn46nBXs-4" value="书页自动检测算法" style="rounded=1;whiteSpace=wrap;html=1;fillColor=#6666FF;" vertex="1" parent="1">
          <mxGeometry x="880" y="470" width="120" height="60" as="geometry" />
        </mxCell>
        <mxCell id="eR14lbWkHuxjIn46nBXs-16" value="" style="edgeStyle=orthogonalEdgeStyle;rounded=0;orthogonalLoop=1;jettySize=auto;html=1;" edge="1" parent="1" source="eR14lbWkHuxjIn46nBXs-5" target="eR14lbWkHuxjIn46nBXs-6">
          <mxGeometry relative="1" as="geometry" />
        </mxCell>
        <mxCell id="eR14lbWkHuxjIn46nBXs-20" value="" style="edgeStyle=orthogonalEdgeStyle;rounded=0;orthogonalLoop=1;jettySize=auto;html=1;" edge="1" parent="1" source="eR14lbWkHuxjIn46nBXs-5" target="eR14lbWkHuxjIn46nBXs-7">
          <mxGeometry relative="1" as="geometry" />
        </mxCell>
        <mxCell id="eR14lbWkHuxjIn46nBXs-5" value="是否对齐书页" style="rhombus;whiteSpace=wrap;html=1;" vertex="1" parent="1">
          <mxGeometry x="875" y="580" width="130" height="80" as="geometry" />
        </mxCell>
        <mxCell id="eR14lbWkHuxjIn46nBXs-17" value="" style="edgeStyle=orthogonalEdgeStyle;rounded=0;orthogonalLoop=1;jettySize=auto;html=1;" edge="1" parent="1" source="eR14lbWkHuxjIn46nBXs-6" target="eR14lbWkHuxjIn46nBXs-9">
          <mxGeometry relative="1" as="geometry" />
        </mxCell>
        <mxCell id="eR14lbWkHuxjIn46nBXs-6" value="摄像头自动对焦算法" style="rounded=1;whiteSpace=wrap;html=1;fillColor=#6666FF;" vertex="1" parent="1">
          <mxGeometry x="880" y="720" width="120" height="60" as="geometry" />
        </mxCell>
        <mxCell id="eR14lbWkHuxjIn46nBXs-21" style="edgeStyle=orthogonalEdgeStyle;rounded=0;orthogonalLoop=1;jettySize=auto;html=1;entryX=1;entryY=0.5;entryDx=0;entryDy=0;" edge="1" parent="1" source="eR14lbWkHuxjIn46nBXs-7" target="eR14lbWkHuxjIn46nBXs-4">
          <mxGeometry relative="1" as="geometry">
            <Array as="points">
              <mxPoint x="1150" y="500" />
            </Array>
          </mxGeometry>
        </mxCell>
        <mxCell id="eR14lbWkHuxjIn46nBXs-7" value="语音引导对齐模块" style="rounded=1;whiteSpace=wrap;html=1;fillColor=#6666FF;" vertex="1" parent="1">
          <mxGeometry x="1090" y="590" width="120" height="60" as="geometry" />
        </mxCell>
        <mxCell id="eR14lbWkHuxjIn46nBXs-18" value="" style="edgeStyle=orthogonalEdgeStyle;rounded=0;orthogonalLoop=1;jettySize=auto;html=1;" edge="1" parent="1" source="eR14lbWkHuxjIn46nBXs-9" target="eR14lbWkHuxjIn46nBXs-10">
          <mxGeometry relative="1" as="geometry" />
        </mxCell>
        <mxCell id="eR14lbWkHuxjIn46nBXs-9" value="OCR识别算法" style="rounded=1;whiteSpace=wrap;html=1;" vertex="1" parent="1">
          <mxGeometry x="880" y="840" width="120" height="60" as="geometry" />
        </mxCell>
        <mxCell id="eR14lbWkHuxjIn46nBXs-19" value="" style="edgeStyle=orthogonalEdgeStyle;rounded=0;orthogonalLoop=1;jettySize=auto;html=1;" edge="1" parent="1" source="eR14lbWkHuxjIn46nBXs-10" target="eR14lbWkHuxjIn46nBXs-11">
          <mxGeometry relative="1" as="geometry" />
        </mxCell>
        <mxCell id="eR14lbWkHuxjIn46nBXs-10" value="识别结果后处理" style="rounded=1;whiteSpace=wrap;html=1;" vertex="1" parent="1">
          <mxGeometry x="880" y="960" width="120" height="60" as="geometry" />
        </mxCell>
        <mxCell id="eR14lbWkHuxjIn46nBXs-22" style="edgeStyle=orthogonalEdgeStyle;rounded=0;orthogonalLoop=1;jettySize=auto;html=1;entryX=1;entryY=0.5;entryDx=0;entryDy=0;" edge="1" parent="1" source="eR14lbWkHuxjIn46nBXs-11" target="eR14lbWkHuxjIn46nBXs-3">
          <mxGeometry relative="1" as="geometry">
            <Array as="points">
              <mxPoint x="1300" y="1100" />
              <mxPoint x="1300" y="390" />
            </Array>
          </mxGeometry>
        </mxCell>
        <mxCell id="eR14lbWkHuxjIn46nBXs-24" value="" style="edgeStyle=orthogonalEdgeStyle;rounded=0;orthogonalLoop=1;jettySize=auto;html=1;" edge="1" parent="1" source="eR14lbWkHuxjIn46nBXs-11" target="eR14lbWkHuxjIn46nBXs-23">
          <mxGeometry relative="1" as="geometry" />
        </mxCell>
        <mxCell id="eR14lbWkHuxjIn46nBXs-11" value="识别内容播报" style="rounded=1;whiteSpace=wrap;html=1;" vertex="1" parent="1">
          <mxGeometry x="880" y="1070" width="120" height="60" as="geometry" />
        </mxCell>
        <mxCell id="eR14lbWkHuxjIn46nBXs-23" value="结束" style="rounded=1;whiteSpace=wrap;html=1;" vertex="1" parent="1">
          <mxGeometry x="880" y="1170" width="120" height="60" as="geometry" />
        </mxCell>
        <mxCell id="eR14lbWkHuxjIn46nBXs-25" value="NO" style="text;html=1;strokeColor=none;fillColor=none;align=center;verticalAlign=middle;whiteSpace=wrap;rounded=0;" vertex="1" parent="1">
          <mxGeometry x="1011" y="626" width="60" height="30" as="geometry" />
        </mxCell>
        <mxCell id="eR14lbWkHuxjIn46nBXs-28" value="自定义按键操作" style="text;html=1;strokeColor=none;fillColor=none;align=center;verticalAlign=middle;whiteSpace=wrap;rounded=0;" vertex="1" parent="1">
          <mxGeometry x="945" y="427" width="60" height="30" as="geometry" />
        </mxCell>
        <mxCell id="eR14lbWkHuxjIn46nBXs-29" value="TTS和OCR引擎初始化" style="text;html=1;strokeColor=none;fillColor=none;align=center;verticalAlign=middle;whiteSpace=wrap;rounded=0;" vertex="1" parent="1">
          <mxGeometry x="940" y="296" width="60" height="30" as="geometry" />
        </mxCell>
        <mxCell id="eR14lbWkHuxjIn46nBXs-30" value="YES" style="text;html=1;strokeColor=none;fillColor=none;align=center;verticalAlign=middle;whiteSpace=wrap;rounded=0;" vertex="1" parent="1">
          <mxGeometry x="943" y="670" width="60" height="30" as="geometry" />
        </mxCell>
        <mxCell id="eR14lbWkHuxjIn46nBXs-31" value="语音引导用户调整摄像头位置" style="text;html=1;strokeColor=none;fillColor=none;align=center;verticalAlign=middle;whiteSpace=wrap;rounded=0;" vertex="1" parent="1">
          <mxGeometry x="1153" y="536" width="71" height="30" as="geometry" />
        </mxCell>
        <mxCell id="eR14lbWkHuxjIn46nBXs-32" value="按键控制下一轮识别和播报" style="text;html=1;strokeColor=none;fillColor=none;align=center;verticalAlign=middle;whiteSpace=wrap;rounded=0;" vertex="1" parent="1">
          <mxGeometry x="1306" y="729" width="60" height="30" as="geometry" />
        </mxCell>
      </root>
    </mxGraphModel>
  </diagram>
</mxfile>
